<svg width="11" height="14" viewBox="0 0 11 14" fill="none" xmlns="http://www.w3.org/2000/svg">
<path fill-rule="evenodd" clip-rule="evenodd" d="M5.33333 0C2.38781 0 0 2.66839 0 5.66667C0 8.64145 1.70222 11.8749 4.35805 13.1163C4.97716 13.4057 5.6895 13.4057 6.30862 13.1163C8.96445 11.8749 10.6667 8.64145 10.6667 5.66667C10.6667 2.66839 8.27885 0 5.33333 0ZM5.33333 6.66667C6.06971 6.66667 6.66667 6.06971 6.66667 5.33333C6.66667 4.59695 6.06971 4 5.33333 4C4.59695 4 4 4.59695 4 5.33333C4 6.06971 4.59695 6.66667 5.33333 6.66667Z" fill="#363062"/>
</svg>
